<svg width="1440" height="902" viewBox="0 0 1440 902" fill="none" xmlns="http://www.w3.org/2000/svg">
<rect width="1440" height="902" rx="55" fill="#C0D3F6"/>
<path d="M67.5078 206.891C67.1641 210.531 65.8203 213.375 63.4766 215.422C61.1328 217.453 58.0156 218.469 54.125 218.469C51.4062 218.469 49.0078 217.828 46.9297 216.547C44.8672 215.25 43.2734 213.414 42.1484 211.039C41.0234 208.664 40.4375 205.906 40.3906 202.766V199.578C40.3906 196.359 40.9609 193.523 42.1016 191.07C43.2422 188.617 44.875 186.727 47 185.398C49.1406 184.07 51.6094 183.406 54.4062 183.406C58.1719 183.406 61.2031 184.43 63.5 186.477C65.7969 188.523 67.1328 191.414 67.5078 195.148H61.6016C61.3203 192.695 60.6016 190.93 59.4453 189.852C58.3047 188.758 56.625 188.211 54.4062 188.211C51.8281 188.211 49.8438 189.156 48.4531 191.047C47.0781 192.922 46.375 195.68 46.3438 199.32V202.344C46.3438 206.031 47 208.844 48.3125 210.781C49.6406 212.719 51.5781 213.688 54.125 213.688C56.4531 213.688 58.2031 213.164 59.375 212.117C60.5469 211.07 61.2891 209.328 61.6016 206.891H67.5078ZM71.2109 205.086C71.2109 202.602 71.7031 200.367 72.6875 198.383C73.6719 196.383 75.0547 194.852 76.8359 193.789C78.6172 192.711 80.6641 192.172 82.9766 192.172C86.3984 192.172 89.1719 193.273 91.2969 195.477C93.4375 197.68 94.5938 200.602 94.7656 204.242L94.7891 205.578C94.7891 208.078 94.3047 210.312 93.3359 212.281C92.3828 214.25 91.0078 215.773 89.2109 216.852C87.4297 217.93 85.3672 218.469 83.0234 218.469C79.4453 218.469 76.5781 217.281 74.4219 214.906C72.2812 212.516 71.2109 209.336 71.2109 205.367V205.086ZM76.9062 205.578C76.9062 208.188 77.4453 210.234 78.5234 211.719C79.6016 213.188 81.1016 213.922 83.0234 213.922C84.9453 213.922 86.4375 213.172 87.5 211.672C88.5781 210.172 89.1172 207.977 89.1172 205.086C89.1172 202.523 88.5625 200.492 87.4531 198.992C86.3594 197.492 84.8672 196.742 82.9766 196.742C81.1172 196.742 79.6406 197.484 78.5469 198.969C77.4531 200.438 76.9062 202.641 76.9062 205.578ZM104.891 192.641L105.055 195.57C106.93 193.305 109.391 192.172 112.438 192.172C117.719 192.172 120.406 195.195 120.5 201.242V218H114.805V201.57C114.805 199.961 114.453 198.773 113.75 198.008C113.062 197.227 111.93 196.836 110.352 196.836C108.055 196.836 106.344 197.875 105.219 199.953V218H99.5234V192.641H104.891ZM131.609 192.641L131.773 195.57C133.648 193.305 136.109 192.172 139.156 192.172C144.438 192.172 147.125 195.195 147.219 201.242V218H141.523V201.57C141.523 199.961 141.172 198.773 140.469 198.008C139.781 197.227 138.648 196.836 137.07 196.836C134.773 196.836 133.062 197.875 131.938 199.953V218H126.242V192.641H131.609ZM164.211 218.469C160.602 218.469 157.672 217.336 155.422 215.07C153.188 212.789 152.07 209.758 152.07 205.977V205.273C152.07 202.742 152.555 200.484 153.523 198.5C154.508 196.5 155.883 194.945 157.648 193.836C159.414 192.727 161.383 192.172 163.555 192.172C167.008 192.172 169.672 193.273 171.547 195.477C173.438 197.68 174.383 200.797 174.383 204.828V207.125H157.812C157.984 209.219 158.68 210.875 159.898 212.094C161.133 213.312 162.68 213.922 164.539 213.922C167.148 213.922 169.273 212.867 170.914 210.758L173.984 213.688C172.969 215.203 171.609 216.383 169.906 217.227C168.219 218.055 166.32 218.469 164.211 218.469ZM163.531 196.742C161.969 196.742 160.703 197.289 159.734 198.383C158.781 199.477 158.172 201 157.906 202.953H168.758V202.531C168.633 200.625 168.125 199.188 167.234 198.219C166.344 197.234 165.109 196.742 163.531 196.742ZM189.242 213.922C190.664 213.922 191.844 213.508 192.781 212.68C193.719 211.852 194.219 210.828 194.281 209.609H199.648C199.586 211.188 199.094 212.664 198.172 214.039C197.25 215.398 196 216.477 194.422 217.273C192.844 218.07 191.141 218.469 189.312 218.469C185.766 218.469 182.953 217.32 180.875 215.023C178.797 212.727 177.758 209.555 177.758 205.508V204.922C177.758 201.062 178.789 197.977 180.852 195.664C182.914 193.336 185.727 192.172 189.289 192.172C192.305 192.172 194.758 193.055 196.648 194.82C198.555 196.57 199.555 198.875 199.648 201.734H194.281C194.219 200.281 193.719 199.086 192.781 198.148C191.859 197.211 190.68 196.742 189.242 196.742C187.398 196.742 185.977 197.414 184.977 198.758C183.977 200.086 183.469 202.109 183.453 204.828V205.742C183.453 208.492 183.945 210.547 184.93 211.906C185.93 213.25 187.367 213.922 189.242 213.922ZM211.086 186.477V192.641H215.562V196.859H211.086V211.016C211.086 211.984 211.273 212.688 211.648 213.125C212.039 213.547 212.727 213.758 213.711 213.758C214.367 213.758 215.031 213.68 215.703 213.523V217.93C214.406 218.289 213.156 218.469 211.953 218.469C207.578 218.469 205.391 216.055 205.391 211.227V196.859H201.219V192.641H205.391V186.477H211.086ZM254.164 210.148L258.195 192.641H263.75L256.836 218H252.148L246.711 200.586L241.367 218H236.68L229.742 192.641H235.297L239.398 209.961L244.602 192.641H248.891L254.164 210.148ZM273.617 218H267.922V192.641H273.617V218ZM267.57 186.055C267.57 185.18 267.844 184.453 268.391 183.875C268.953 183.297 269.75 183.008 270.781 183.008C271.812 183.008 272.609 183.297 273.172 183.875C273.734 184.453 274.016 185.18 274.016 186.055C274.016 186.914 273.734 187.633 273.172 188.211C272.609 188.773 271.812 189.055 270.781 189.055C269.75 189.055 268.953 188.773 268.391 188.211C267.844 187.633 267.57 186.914 267.57 186.055ZM286.977 186.477V192.641H291.453V196.859H286.977V211.016C286.977 211.984 287.164 212.688 287.539 213.125C287.93 213.547 288.617 213.758 289.602 213.758C290.258 213.758 290.922 213.68 291.594 213.523V217.93C290.297 218.289 289.047 218.469 287.844 218.469C283.469 218.469 281.281 216.055 281.281 211.227V196.859H277.109V192.641H281.281V186.477H286.977ZM301.438 195.406C303.297 193.25 305.648 192.172 308.492 192.172C313.898 192.172 316.641 195.258 316.719 201.43V218H311.023V201.641C311.023 199.891 310.641 198.656 309.875 197.938C309.125 197.203 308.016 196.836 306.547 196.836C304.266 196.836 302.562 197.852 301.438 199.883V218H295.742V182H301.438V195.406ZM349.812 215.516C348.141 217.484 345.766 218.469 342.688 218.469C339.938 218.469 337.852 217.664 336.43 216.055C335.023 214.445 334.32 212.117 334.32 209.07V192.641H340.016V209C340.016 212.219 341.352 213.828 344.023 213.828C346.789 213.828 348.656 212.836 349.625 210.852V192.641H355.32V218H349.953L349.812 215.516ZM375.336 211.109C375.336 210.094 374.914 209.32 374.07 208.789C373.242 208.258 371.859 207.789 369.922 207.383C367.984 206.977 366.367 206.461 365.07 205.836C362.227 204.461 360.805 202.469 360.805 199.859C360.805 197.672 361.727 195.844 363.57 194.375C365.414 192.906 367.758 192.172 370.602 192.172C373.633 192.172 376.078 192.922 377.938 194.422C379.812 195.922 380.75 197.867 380.75 200.258H375.055C375.055 199.164 374.648 198.258 373.836 197.539C373.023 196.805 371.945 196.438 370.602 196.438C369.352 196.438 368.328 196.727 367.531 197.305C366.75 197.883 366.359 198.656 366.359 199.625C366.359 200.5 366.727 201.18 367.461 201.664C368.195 202.148 369.68 202.641 371.914 203.141C374.148 203.625 375.898 204.211 377.164 204.898C378.445 205.57 379.391 206.383 380 207.336C380.625 208.289 380.938 209.445 380.938 210.805C380.938 213.086 379.992 214.938 378.102 216.359C376.211 217.766 373.734 218.469 370.672 218.469C368.594 218.469 366.742 218.094 365.117 217.344C363.492 216.594 362.227 215.562 361.32 214.25C360.414 212.938 359.961 211.523 359.961 210.008H365.492C365.57 211.352 366.078 212.391 367.016 213.125C367.953 213.844 369.195 214.203 370.742 214.203C372.242 214.203 373.383 213.922 374.164 213.359C374.945 212.781 375.336 212.031 375.336 211.109ZM396.805 205.086C396.805 202.602 397.297 200.367 398.281 198.383C399.266 196.383 400.648 194.852 402.43 193.789C404.211 192.711 406.258 192.172 408.57 192.172C411.992 192.172 414.766 193.273 416.891 195.477C419.031 197.68 420.188 200.602 420.359 204.242L420.383 205.578C420.383 208.078 419.898 210.312 418.93 212.281C417.977 214.25 416.602 215.773 414.805 216.852C413.023 217.93 410.961 218.469 408.617 218.469C405.039 218.469 402.172 217.281 400.016 214.906C397.875 212.516 396.805 209.336 396.805 205.367V205.086ZM402.5 205.578C402.5 208.188 403.039 210.234 404.117 211.719C405.195 213.188 406.695 213.922 408.617 213.922C410.539 213.922 412.031 213.172 413.094 211.672C414.172 210.172 414.711 207.977 414.711 205.086C414.711 202.523 414.156 200.492 413.047 198.992C411.953 197.492 410.461 196.742 408.57 196.742C406.711 196.742 405.234 197.484 404.141 198.969C403.047 200.438 402.5 202.641 402.5 205.578ZM430.484 192.641L430.648 195.57C432.523 193.305 434.984 192.172 438.031 192.172C443.312 192.172 446 195.195 446.094 201.242V218H440.398V201.57C440.398 199.961 440.047 198.773 439.344 198.008C438.656 197.227 437.523 196.836 435.945 196.836C433.648 196.836 431.938 197.875 430.812 199.953V218H425.117V192.641H430.484ZM462.805 205.086C462.805 202.602 463.297 200.367 464.281 198.383C465.266 196.383 466.648 194.852 468.43 193.789C470.211 192.711 472.258 192.172 474.57 192.172C477.992 192.172 480.766 193.273 482.891 195.477C485.031 197.68 486.188 200.602 486.359 204.242L486.383 205.578C486.383 208.078 485.898 210.312 484.93 212.281C483.977 214.25 482.602 215.773 480.805 216.852C479.023 217.93 476.961 218.469 474.617 218.469C471.039 218.469 468.172 217.281 466.016 214.906C463.875 212.516 462.805 209.336 462.805 205.367V205.086ZM468.5 205.578C468.5 208.188 469.039 210.234 470.117 211.719C471.195 213.188 472.695 213.922 474.617 213.922C476.539 213.922 478.031 213.172 479.094 211.672C480.172 210.172 480.711 207.977 480.711 205.086C480.711 202.523 480.156 200.492 479.047 198.992C477.953 197.492 476.461 196.742 474.57 196.742C472.711 196.742 471.234 197.484 470.141 198.969C469.047 200.438 468.5 202.641 468.5 205.578ZM506.562 215.516C504.891 217.484 502.516 218.469 499.438 218.469C496.688 218.469 494.602 217.664 493.18 216.055C491.773 214.445 491.07 212.117 491.07 209.07V192.641H496.766V209C496.766 212.219 498.102 213.828 500.773 213.828C503.539 213.828 505.406 212.836 506.375 210.852V192.641H512.07V218H506.703L506.562 215.516ZM531.148 197.844C530.398 197.719 529.625 197.656 528.828 197.656C526.219 197.656 524.461 198.656 523.555 200.656V218H517.859V192.641H523.297L523.438 195.477C524.812 193.273 526.719 192.172 529.156 192.172C529.969 192.172 530.641 192.281 531.172 192.5L531.148 197.844ZM568.906 205.578C568.906 209.5 568.016 212.633 566.234 214.977C564.453 217.305 562.062 218.469 559.062 218.469C556.281 218.469 554.055 217.555 552.383 215.727V227.75H546.688V192.641H551.938L552.172 195.219C553.844 193.188 556.117 192.172 558.992 192.172C562.086 192.172 564.508 193.328 566.258 195.641C568.023 197.938 568.906 201.133 568.906 205.227V205.578ZM563.234 205.086C563.234 202.555 562.727 200.547 561.711 199.062C560.711 197.578 559.273 196.836 557.398 196.836C555.07 196.836 553.398 197.797 552.383 199.719V210.969C553.414 212.938 555.102 213.922 557.445 213.922C559.258 213.922 560.672 213.195 561.688 211.742C562.719 210.273 563.234 208.055 563.234 205.086ZM579.805 218H574.109V182H579.805V218ZM601.18 218C600.93 217.516 600.711 216.727 600.523 215.633C598.711 217.523 596.492 218.469 593.867 218.469C591.32 218.469 589.242 217.742 587.633 216.289C586.023 214.836 585.219 213.039 585.219 210.898C585.219 208.195 586.219 206.125 588.219 204.688C590.234 203.234 593.109 202.508 596.844 202.508H600.336V200.844C600.336 199.531 599.969 198.484 599.234 197.703C598.5 196.906 597.383 196.508 595.883 196.508C594.586 196.508 593.523 196.836 592.695 197.492C591.867 198.133 591.453 198.953 591.453 199.953H585.758C585.758 198.562 586.219 197.266 587.141 196.062C588.062 194.844 589.312 193.891 590.891 193.203C592.484 192.516 594.258 192.172 596.211 192.172C599.18 192.172 601.547 192.922 603.312 194.422C605.078 195.906 605.984 198 606.031 200.703V212.141C606.031 214.422 606.352 216.242 606.992 217.602V218H601.18ZM594.922 213.898C596.047 213.898 597.102 213.625 598.086 213.078C599.086 212.531 599.836 211.797 600.336 210.875V206.094H597.266C595.156 206.094 593.57 206.461 592.508 207.195C591.445 207.93 590.914 208.969 590.914 210.312C590.914 211.406 591.273 212.281 591.992 212.938C592.727 213.578 593.703 213.898 594.922 213.898ZM619.133 186.477V192.641H623.609V196.859H619.133V211.016C619.133 211.984 619.32 212.688 619.695 213.125C620.086 213.547 620.773 213.758 621.758 213.758C622.414 213.758 623.078 213.68 623.75 213.523V217.93C622.453 218.289 621.203 218.469 620 218.469C615.625 218.469 613.438 216.055 613.438 211.227V196.859H609.266V192.641H613.438V186.477H619.133ZM629.984 218V196.859H626.117V192.641H629.984V190.32C629.984 187.508 630.766 185.336 632.328 183.805C633.891 182.273 636.078 181.508 638.891 181.508C639.891 181.508 640.953 181.648 642.078 181.93L641.938 186.383C641.312 186.258 640.586 186.195 639.758 186.195C637.039 186.195 635.68 187.594 635.68 190.391V192.641H640.836V196.859H635.68V218H629.984ZM643.93 205.086C643.93 202.602 644.422 200.367 645.406 198.383C646.391 196.383 647.773 194.852 649.555 193.789C651.336 192.711 653.383 192.172 655.695 192.172C659.117 192.172 661.891 193.273 664.016 195.477C666.156 197.68 667.312 200.602 667.484 204.242L667.508 205.578C667.508 208.078 667.023 210.312 666.055 212.281C665.102 214.25 663.727 215.773 661.93 216.852C660.148 217.93 658.086 218.469 655.742 218.469C652.164 218.469 649.297 217.281 647.141 214.906C645 212.516 643.93 209.336 643.93 205.367V205.086ZM649.625 205.578C649.625 208.188 650.164 210.234 651.242 211.719C652.32 213.188 653.82 213.922 655.742 213.922C657.664 213.922 659.156 213.172 660.219 211.672C661.297 210.172 661.836 207.977 661.836 205.086C661.836 202.523 661.281 200.492 660.172 198.992C659.078 197.492 657.586 196.742 655.695 196.742C653.836 196.742 652.359 197.484 651.266 198.969C650.172 200.438 649.625 202.641 649.625 205.578ZM685.602 197.844C684.852 197.719 684.078 197.656 683.281 197.656C680.672 197.656 678.914 198.656 678.008 200.656V218H672.312V192.641H677.75L677.891 195.477C679.266 193.273 681.172 192.172 683.609 192.172C684.422 192.172 685.094 192.281 685.625 192.5L685.602 197.844ZM694.555 192.641L694.719 195.289C696.5 193.211 698.938 192.172 702.031 192.172C705.422 192.172 707.742 193.469 708.992 196.062C710.836 193.469 713.43 192.172 716.773 192.172C719.57 192.172 721.648 192.945 723.008 194.492C724.383 196.039 725.086 198.32 725.117 201.336V218H719.422V201.5C719.422 199.891 719.07 198.711 718.367 197.961C717.664 197.211 716.5 196.836 714.875 196.836C713.578 196.836 712.516 197.188 711.688 197.891C710.875 198.578 710.305 199.484 709.977 200.609L710 218H704.305V201.312C704.227 198.328 702.703 196.836 699.734 196.836C697.453 196.836 695.836 197.766 694.883 199.625V218H689.188V192.641H694.555ZM745.18 211.109C745.18 210.094 744.758 209.32 743.914 208.789C743.086 208.258 741.703 207.789 739.766 207.383C737.828 206.977 736.211 206.461 734.914 205.836C732.07 204.461 730.648 202.469 730.648 199.859C730.648 197.672 731.57 195.844 733.414 194.375C735.258 192.906 737.602 192.172 740.445 192.172C743.477 192.172 745.922 192.922 747.781 194.422C749.656 195.922 750.594 197.867 750.594 200.258H744.898C744.898 199.164 744.492 198.258 743.68 197.539C742.867 196.805 741.789 196.438 740.445 196.438C739.195 196.438 738.172 196.727 737.375 197.305C736.594 197.883 736.203 198.656 736.203 199.625C736.203 200.5 736.57 201.18 737.305 201.664C738.039 202.148 739.523 202.641 741.758 203.141C743.992 203.625 745.742 204.211 747.008 204.898C748.289 205.57 749.234 206.383 749.844 207.336C750.469 208.289 750.781 209.445 750.781 210.805C750.781 213.086 749.836 214.938 747.945 216.359C746.055 217.766 743.578 218.469 740.516 218.469C738.438 218.469 736.586 218.094 734.961 217.344C733.336 216.594 732.07 215.562 731.164 214.25C730.258 212.938 729.805 211.523 729.805 210.008H735.336C735.414 211.352 735.922 212.391 736.859 213.125C737.797 213.844 739.039 214.203 740.586 214.203C742.086 214.203 743.227 213.922 744.008 213.359C744.789 212.781 745.18 212.031 745.18 211.109Z" fill="black"/>
<path d="M101.57 392.055H88.3516L85.5859 400H79.4219L92.3125 365.875H97.6328L110.547 400H104.359L101.57 392.055ZM90.0156 387.273H99.9062L94.9609 373.117L90.0156 387.273ZM128.102 393.109C128.102 392.094 127.68 391.32 126.836 390.789C126.008 390.258 124.625 389.789 122.688 389.383C120.75 388.977 119.133 388.461 117.836 387.836C114.992 386.461 113.57 384.469 113.57 381.859C113.57 379.672 114.492 377.844 116.336 376.375C118.18 374.906 120.523 374.172 123.367 374.172C126.398 374.172 128.844 374.922 130.703 376.422C132.578 377.922 133.516 379.867 133.516 382.258H127.82C127.82 381.164 127.414 380.258 126.602 379.539C125.789 378.805 124.711 378.438 123.367 378.438C122.117 378.438 121.094 378.727 120.297 379.305C119.516 379.883 119.125 380.656 119.125 381.625C119.125 382.5 119.492 383.18 120.227 383.664C120.961 384.148 122.445 384.641 124.68 385.141C126.914 385.625 128.664 386.211 129.93 386.898C131.211 387.57 132.156 388.383 132.766 389.336C133.391 390.289 133.703 391.445 133.703 392.805C133.703 395.086 132.758 396.938 130.867 398.359C128.977 399.766 126.5 400.469 123.438 400.469C121.359 400.469 119.508 400.094 117.883 399.344C116.258 398.594 114.992 397.562 114.086 396.25C113.18 394.938 112.727 393.523 112.727 392.008H118.258C118.336 393.352 118.844 394.391 119.781 395.125C120.719 395.844 121.961 396.203 123.508 396.203C125.008 396.203 126.148 395.922 126.93 395.359C127.711 394.781 128.102 394.031 128.102 393.109ZM146.922 389.125L144.391 391.727V400H138.695V364H144.391V384.766L146.172 382.539L153.18 374.641H160.023L150.602 385.211L161.031 400H154.445L146.922 389.125ZM177.719 400V378.859H173.852V374.641H177.719V372.32C177.719 369.508 178.5 367.336 180.062 365.805C181.625 364.273 183.812 363.508 186.625 363.508C187.625 363.508 188.688 363.648 189.812 363.93L189.672 368.383C189.047 368.258 188.32 368.195 187.492 368.195C184.773 368.195 183.414 369.594 183.414 372.391V374.641H188.57V378.859H183.414V400H177.719ZM191.664 387.086C191.664 384.602 192.156 382.367 193.141 380.383C194.125 378.383 195.508 376.852 197.289 375.789C199.07 374.711 201.117 374.172 203.43 374.172C206.852 374.172 209.625 375.273 211.75 377.477C213.891 379.68 215.047 382.602 215.219 386.242L215.242 387.578C215.242 390.078 214.758 392.312 213.789 394.281C212.836 396.25 211.461 397.773 209.664 398.852C207.883 399.93 205.82 400.469 203.477 400.469C199.898 400.469 197.031 399.281 194.875 396.906C192.734 394.516 191.664 391.336 191.664 387.367V387.086ZM197.359 387.578C197.359 390.188 197.898 392.234 198.977 393.719C200.055 395.188 201.555 395.922 203.477 395.922C205.398 395.922 206.891 395.172 207.953 393.672C209.031 392.172 209.57 389.977 209.57 387.086C209.57 384.523 209.016 382.492 207.906 380.992C206.812 379.492 205.32 378.742 203.43 378.742C201.57 378.742 200.094 379.484 199 380.969C197.906 382.438 197.359 384.641 197.359 387.578ZM233.336 379.844C232.586 379.719 231.812 379.656 231.016 379.656C228.406 379.656 226.648 380.656 225.742 382.656V400H220.047V374.641H225.484L225.625 377.477C227 375.273 228.906 374.172 231.344 374.172C232.156 374.172 232.828 374.281 233.359 374.5L233.336 379.844ZM247.82 387.109C247.82 383.141 248.727 379.992 250.539 377.664C252.352 375.336 254.805 374.172 257.898 374.172C260.727 374.172 262.969 375.164 264.625 377.148L264.953 374.641H270.016V409.75H264.32V397.844C262.664 399.594 260.508 400.469 257.852 400.469C254.82 400.469 252.391 399.289 250.562 396.93C248.734 394.555 247.82 391.281 247.82 387.109ZM253.516 387.602C253.516 390.195 254.023 392.234 255.039 393.719C256.07 395.188 257.492 395.922 259.305 395.922C261.555 395.922 263.227 394.961 264.32 393.039V381.508C263.227 379.664 261.57 378.742 259.352 378.742C257.539 378.742 256.109 379.469 255.062 380.922C254.031 382.375 253.516 384.602 253.516 387.602ZM291.531 397.516C289.859 399.484 287.484 400.469 284.406 400.469C281.656 400.469 279.57 399.664 278.148 398.055C276.742 396.445 276.039 394.117 276.039 391.07V374.641H281.734V391C281.734 394.219 283.07 395.828 285.742 395.828C288.508 395.828 290.375 394.836 291.344 392.852V374.641H297.039V400H291.672L291.531 397.516ZM314.008 400.469C310.398 400.469 307.469 399.336 305.219 397.07C302.984 394.789 301.867 391.758 301.867 387.977V387.273C301.867 384.742 302.352 382.484 303.32 380.5C304.305 378.5 305.68 376.945 307.445 375.836C309.211 374.727 311.18 374.172 313.352 374.172C316.805 374.172 319.469 375.273 321.344 377.477C323.234 379.68 324.18 382.797 324.18 386.828V389.125H307.609C307.781 391.219 308.477 392.875 309.695 394.094C310.93 395.312 312.477 395.922 314.336 395.922C316.945 395.922 319.07 394.867 320.711 392.758L323.781 395.688C322.766 397.203 321.406 398.383 319.703 399.227C318.016 400.055 316.117 400.469 314.008 400.469ZM313.328 378.742C311.766 378.742 310.5 379.289 309.531 380.383C308.578 381.477 307.969 383 307.703 384.953H318.555V384.531C318.43 382.625 317.922 381.188 317.031 380.219C316.141 379.234 314.906 378.742 313.328 378.742ZM341.898 379.844C341.148 379.719 340.375 379.656 339.578 379.656C336.969 379.656 335.211 380.656 334.305 382.656V400H328.609V374.641H334.047L334.188 377.477C335.562 375.273 337.469 374.172 339.906 374.172C340.719 374.172 341.391 374.281 341.922 374.5L341.898 379.844ZM351.555 400H345.859V374.641H351.555V400ZM345.508 368.055C345.508 367.18 345.781 366.453 346.328 365.875C346.891 365.297 347.688 365.008 348.719 365.008C349.75 365.008 350.547 365.297 351.109 365.875C351.672 366.453 351.953 367.18 351.953 368.055C351.953 368.914 351.672 369.633 351.109 370.211C350.547 370.773 349.75 371.055 348.719 371.055C347.688 371.055 346.891 370.773 346.328 370.211C345.781 369.633 345.508 368.914 345.508 368.055ZM368.945 400.469C365.336 400.469 362.406 399.336 360.156 397.07C357.922 394.789 356.805 391.758 356.805 387.977V387.273C356.805 384.742 357.289 382.484 358.258 380.5C359.242 378.5 360.617 376.945 362.383 375.836C364.148 374.727 366.117 374.172 368.289 374.172C371.742 374.172 374.406 375.273 376.281 377.477C378.172 379.68 379.117 382.797 379.117 386.828V389.125H362.547C362.719 391.219 363.414 392.875 364.633 394.094C365.867 395.312 367.414 395.922 369.273 395.922C371.883 395.922 374.008 394.867 375.648 392.758L378.719 395.688C377.703 397.203 376.344 398.383 374.641 399.227C372.953 400.055 371.055 400.469 368.945 400.469ZM368.266 378.742C366.703 378.742 365.438 379.289 364.469 380.383C363.516 381.477 362.906 383 362.641 384.953H373.492V384.531C373.367 382.625 372.859 381.188 371.969 380.219C371.078 379.234 369.844 378.742 368.266 378.742ZM397.773 393.109C397.773 392.094 397.352 391.32 396.508 390.789C395.68 390.258 394.297 389.789 392.359 389.383C390.422 388.977 388.805 388.461 387.508 387.836C384.664 386.461 383.242 384.469 383.242 381.859C383.242 379.672 384.164 377.844 386.008 376.375C387.852 374.906 390.195 374.172 393.039 374.172C396.07 374.172 398.516 374.922 400.375 376.422C402.25 377.922 403.188 379.867 403.188 382.258H397.492C397.492 381.164 397.086 380.258 396.273 379.539C395.461 378.805 394.383 378.438 393.039 378.438C391.789 378.438 390.766 378.727 389.969 379.305C389.188 379.883 388.797 380.656 388.797 381.625C388.797 382.5 389.164 383.18 389.898 383.664C390.633 384.148 392.117 384.641 394.352 385.141C396.586 385.625 398.336 386.211 399.602 386.898C400.883 387.57 401.828 388.383 402.438 389.336C403.062 390.289 403.375 391.445 403.375 392.805C403.375 395.086 402.43 396.938 400.539 398.359C398.648 399.766 396.172 400.469 393.109 400.469C391.031 400.469 389.18 400.094 387.555 399.344C385.93 398.594 384.664 397.562 383.758 396.25C382.852 394.938 382.398 393.523 382.398 392.008H387.93C388.008 393.352 388.516 394.391 389.453 395.125C390.391 395.844 391.633 396.203 393.18 396.203C394.68 396.203 395.82 395.922 396.602 395.359C397.383 394.781 397.773 394.031 397.773 393.109ZM419.242 387.086C419.242 384.602 419.734 382.367 420.719 380.383C421.703 378.383 423.086 376.852 424.867 375.789C426.648 374.711 428.695 374.172 431.008 374.172C434.43 374.172 437.203 375.273 439.328 377.477C441.469 379.68 442.625 382.602 442.797 386.242L442.82 387.578C442.82 390.078 442.336 392.312 441.367 394.281C440.414 396.25 439.039 397.773 437.242 398.852C435.461 399.93 433.398 400.469 431.055 400.469C427.477 400.469 424.609 399.281 422.453 396.906C420.312 394.516 419.242 391.336 419.242 387.367V387.086ZM424.938 387.578C424.938 390.188 425.477 392.234 426.555 393.719C427.633 395.188 429.133 395.922 431.055 395.922C432.977 395.922 434.469 395.172 435.531 393.672C436.609 392.172 437.148 389.977 437.148 387.086C437.148 384.523 436.594 382.492 435.484 380.992C434.391 379.492 432.898 378.742 431.008 378.742C429.148 378.742 427.672 379.484 426.578 380.969C425.484 382.438 424.938 384.641 424.938 387.578ZM460.914 379.844C460.164 379.719 459.391 379.656 458.594 379.656C455.984 379.656 454.227 380.656 453.32 382.656V400H447.625V374.641H453.062L453.203 377.477C454.578 375.273 456.484 374.172 458.922 374.172C459.734 374.172 460.406 374.281 460.938 374.5L460.914 379.844ZM498.672 387.578C498.672 391.5 497.781 394.633 496 396.977C494.219 399.305 491.828 400.469 488.828 400.469C486.047 400.469 483.82 399.555 482.148 397.727V409.75H476.453V374.641H481.703L481.938 377.219C483.609 375.188 485.883 374.172 488.758 374.172C491.852 374.172 494.273 375.328 496.023 377.641C497.789 379.938 498.672 383.133 498.672 387.227V387.578ZM493 387.086C493 384.555 492.492 382.547 491.477 381.062C490.477 379.578 489.039 378.836 487.164 378.836C484.836 378.836 483.164 379.797 482.148 381.719V392.969C483.18 394.938 484.867 395.922 487.211 395.922C489.023 395.922 490.438 395.195 491.453 393.742C492.484 392.273 493 390.055 493 387.086ZM516.789 379.844C516.039 379.719 515.266 379.656 514.469 379.656C511.859 379.656 510.102 380.656 509.195 382.656V400H503.5V374.641H508.938L509.078 377.477C510.453 375.273 512.359 374.172 514.797 374.172C515.609 374.172 516.281 374.281 516.812 374.5L516.789 379.844ZM518.477 387.086C518.477 384.602 518.969 382.367 519.953 380.383C520.938 378.383 522.32 376.852 524.102 375.789C525.883 374.711 527.93 374.172 530.242 374.172C533.664 374.172 536.438 375.273 538.562 377.477C540.703 379.68 541.859 382.602 542.031 386.242L542.055 387.578C542.055 390.078 541.57 392.312 540.602 394.281C539.648 396.25 538.273 397.773 536.477 398.852C534.695 399.93 532.633 400.469 530.289 400.469C526.711 400.469 523.844 399.281 521.688 396.906C519.547 394.516 518.477 391.336 518.477 387.367V387.086ZM524.172 387.578C524.172 390.188 524.711 392.234 525.789 393.719C526.867 395.188 528.367 395.922 530.289 395.922C532.211 395.922 533.703 395.172 534.766 393.672C535.844 392.172 536.383 389.977 536.383 387.086C536.383 384.523 535.828 382.492 534.719 380.992C533.625 379.492 532.133 378.742 530.242 378.742C528.383 378.742 526.906 379.484 525.812 380.969C524.719 382.438 524.172 384.641 524.172 387.578ZM545.805 387.133C545.805 383.227 546.711 380.094 548.523 377.734C550.336 375.359 552.766 374.172 555.812 374.172C558.5 374.172 560.672 375.109 562.328 376.984V364H568.023V400H562.867L562.586 397.375C560.883 399.438 558.609 400.469 555.766 400.469C552.797 400.469 550.391 399.273 548.547 396.883C546.719 394.492 545.805 391.242 545.805 387.133ZM551.5 387.625C551.5 390.203 551.992 392.219 552.977 393.672C553.977 395.109 555.391 395.828 557.219 395.828C559.547 395.828 561.25 394.789 562.328 392.711V381.883C561.281 379.852 559.594 378.836 557.266 378.836C555.422 378.836 554 379.57 553 381.039C552 382.492 551.5 384.688 551.5 387.625ZM589.328 397.516C587.656 399.484 585.281 400.469 582.203 400.469C579.453 400.469 577.367 399.664 575.945 398.055C574.539 396.445 573.836 394.117 573.836 391.07V374.641H579.531V391C579.531 394.219 580.867 395.828 583.539 395.828C586.305 395.828 588.172 394.836 589.141 392.852V374.641H594.836V400H589.469L589.328 397.516ZM611.055 395.922C612.477 395.922 613.656 395.508 614.594 394.68C615.531 393.852 616.031 392.828 616.094 391.609H621.461C621.398 393.188 620.906 394.664 619.984 396.039C619.062 397.398 617.812 398.477 616.234 399.273C614.656 400.07 612.953 400.469 611.125 400.469C607.578 400.469 604.766 399.32 602.688 397.023C600.609 394.727 599.57 391.555 599.57 387.508V386.922C599.57 383.062 600.602 379.977 602.664 377.664C604.727 375.336 607.539 374.172 611.102 374.172C614.117 374.172 616.57 375.055 618.461 376.82C620.367 378.57 621.367 380.875 621.461 383.734H616.094C616.031 382.281 615.531 381.086 614.594 380.148C613.672 379.211 612.492 378.742 611.055 378.742C609.211 378.742 607.789 379.414 606.789 380.758C605.789 382.086 605.281 384.109 605.266 386.828V387.742C605.266 390.492 605.758 392.547 606.742 393.906C607.742 395.25 609.18 395.922 611.055 395.922ZM632.898 368.477V374.641H637.375V378.859H632.898V393.016C632.898 393.984 633.086 394.688 633.461 395.125C633.852 395.547 634.539 395.758 635.523 395.758C636.18 395.758 636.844 395.68 637.516 395.523V399.93C636.219 400.289 634.969 400.469 633.766 400.469C629.391 400.469 627.203 398.055 627.203 393.227V378.859H623.031V374.641H627.203V368.477H632.898ZM90.7891 447.844L95.9453 430.641H102.016L91.9375 459.844C90.3906 464.109 87.7656 466.242 84.0625 466.242C83.2344 466.242 82.3203 466.102 81.3203 465.82V461.414L82.3984 461.484C83.8359 461.484 84.9141 461.219 85.6328 460.688C86.3672 460.172 86.9453 459.297 87.3672 458.062L88.1875 455.883L79.2812 430.641H85.4219L90.7891 447.844ZM103.867 443.086C103.867 440.602 104.359 438.367 105.344 436.383C106.328 434.383 107.711 432.852 109.492 431.789C111.273 430.711 113.32 430.172 115.633 430.172C119.055 430.172 121.828 431.273 123.953 433.477C126.094 435.68 127.25 438.602 127.422 442.242L127.445 443.578C127.445 446.078 126.961 448.312 125.992 450.281C125.039 452.25 123.664 453.773 121.867 454.852C120.086 455.93 118.023 456.469 115.68 456.469C112.102 456.469 109.234 455.281 107.078 452.906C104.938 450.516 103.867 447.336 103.867 443.367V443.086ZM109.562 443.578C109.562 446.188 110.102 448.234 111.18 449.719C112.258 451.188 113.758 451.922 115.68 451.922C117.602 451.922 119.094 451.172 120.156 449.672C121.234 448.172 121.773 445.977 121.773 443.086C121.773 440.523 121.219 438.492 120.109 436.992C119.016 435.492 117.523 434.742 115.633 434.742C113.773 434.742 112.297 435.484 111.203 436.969C110.109 438.438 109.562 440.641 109.562 443.578ZM147.625 453.516C145.953 455.484 143.578 456.469 140.5 456.469C137.75 456.469 135.664 455.664 134.242 454.055C132.836 452.445 132.133 450.117 132.133 447.07V430.641H137.828V447C137.828 450.219 139.164 451.828 141.836 451.828C144.602 451.828 146.469 450.836 147.438 448.852V430.641H153.133V456H147.766L147.625 453.516ZM205.117 448.148L209.148 430.641H214.703L207.789 456H203.102L197.664 438.586L192.32 456H187.633L180.695 430.641H186.25L190.352 447.961L195.555 430.641H199.844L205.117 448.148ZM233.664 456C233.414 455.516 233.195 454.727 233.008 453.633C231.195 455.523 228.977 456.469 226.352 456.469C223.805 456.469 221.727 455.742 220.117 454.289C218.508 452.836 217.703 451.039 217.703 448.898C217.703 446.195 218.703 444.125 220.703 442.688C222.719 441.234 225.594 440.508 229.328 440.508H232.82V438.844C232.82 437.531 232.453 436.484 231.719 435.703C230.984 434.906 229.867 434.508 228.367 434.508C227.07 434.508 226.008 434.836 225.18 435.492C224.352 436.133 223.938 436.953 223.938 437.953H218.242C218.242 436.562 218.703 435.266 219.625 434.062C220.547 432.844 221.797 431.891 223.375 431.203C224.969 430.516 226.742 430.172 228.695 430.172C231.664 430.172 234.031 430.922 235.797 432.422C237.562 433.906 238.469 436 238.516 438.703V450.141C238.516 452.422 238.836 454.242 239.477 455.602V456H233.664ZM227.406 451.898C228.531 451.898 229.586 451.625 230.57 451.078C231.57 450.531 232.32 449.797 232.82 448.875V444.094H229.75C227.641 444.094 226.055 444.461 224.992 445.195C223.93 445.93 223.398 446.969 223.398 448.312C223.398 449.406 223.758 450.281 224.477 450.938C225.211 451.578 226.188 451.898 227.406 451.898ZM249.766 430.641L249.93 433.57C251.805 431.305 254.266 430.172 257.312 430.172C262.594 430.172 265.281 433.195 265.375 439.242V456H259.68V439.57C259.68 437.961 259.328 436.773 258.625 436.008C257.938 435.227 256.805 434.836 255.227 434.836C252.93 434.836 251.219 435.875 250.094 437.953V456H244.398V430.641H249.766ZM278.336 424.477V430.641H282.812V434.859H278.336V449.016C278.336 449.984 278.523 450.688 278.898 451.125C279.289 451.547 279.977 451.758 280.961 451.758C281.617 451.758 282.281 451.68 282.953 451.523V455.93C281.656 456.289 280.406 456.469 279.203 456.469C274.828 456.469 272.641 454.055 272.641 449.227V434.859H268.469V430.641H272.641V424.477H278.336Z" fill="black"/>
<path d="M74.625 672.57C73.3906 674.18 71.6797 675.398 69.4922 676.227C67.3047 677.055 64.8203 677.469 62.0391 677.469C59.1797 677.469 56.6484 676.82 54.4453 675.523C52.2422 674.227 50.5391 672.375 49.3359 669.969C48.1484 667.547 47.5312 664.727 47.4844 661.508V658.836C47.4844 653.68 48.7188 649.656 51.1875 646.766C53.6562 643.859 57.1016 642.406 61.5234 642.406C65.3203 642.406 68.3359 643.344 70.5703 645.219C72.8047 647.094 74.1484 649.797 74.6016 653.328H68.7891C68.1328 649.219 65.75 647.164 61.6406 647.164C58.9844 647.164 56.9609 648.125 55.5703 650.047C54.1953 651.953 53.4844 654.758 53.4375 658.461V661.086C53.4375 664.773 54.2109 667.641 55.7578 669.688C57.3203 671.719 59.4844 672.734 62.25 672.734C65.2812 672.734 67.4375 672.047 68.7188 670.672V663.992H61.6875V659.492H74.625V672.57ZM91.7578 677.469C88.1484 677.469 85.2188 676.336 82.9688 674.07C80.7344 671.789 79.6172 668.758 79.6172 664.977V664.273C79.6172 661.742 80.1016 659.484 81.0703 657.5C82.0547 655.5 83.4297 653.945 85.1953 652.836C86.9609 651.727 88.9297 651.172 91.1016 651.172C94.5547 651.172 97.2188 652.273 99.0938 654.477C100.984 656.68 101.93 659.797 101.93 663.828V666.125H85.3594C85.5312 668.219 86.2266 669.875 87.4453 671.094C88.6797 672.312 90.2266 672.922 92.0859 672.922C94.6953 672.922 96.8203 671.867 98.4609 669.758L101.531 672.688C100.516 674.203 99.1562 675.383 97.4531 676.227C95.7656 677.055 93.8672 677.469 91.7578 677.469ZM91.0781 655.742C89.5156 655.742 88.25 656.289 87.2812 657.383C86.3281 658.477 85.7188 660 85.4531 661.953H96.3047V661.531C96.1797 659.625 95.6719 658.188 94.7812 657.219C93.8906 656.234 92.6562 655.742 91.0781 655.742ZM113.508 645.477V651.641H117.984V655.859H113.508V670.016C113.508 670.984 113.695 671.688 114.07 672.125C114.461 672.547 115.148 672.758 116.133 672.758C116.789 672.758 117.453 672.68 118.125 672.523V676.93C116.828 677.289 115.578 677.469 114.375 677.469C110 677.469 107.812 675.055 107.812 670.227V655.859H103.641V651.641H107.812V645.477H113.508ZM140.367 677H134.672V651.641H140.367V677ZM134.32 645.055C134.32 644.18 134.594 643.453 135.141 642.875C135.703 642.297 136.5 642.008 137.531 642.008C138.562 642.008 139.359 642.297 139.922 642.875C140.484 643.453 140.766 644.18 140.766 645.055C140.766 645.914 140.484 646.633 139.922 647.211C139.359 647.773 138.562 648.055 137.531 648.055C136.5 648.055 135.703 647.773 135.141 647.211C134.594 646.633 134.32 645.914 134.32 645.055ZM151.875 651.641L152.039 654.57C153.914 652.305 156.375 651.172 159.422 651.172C164.703 651.172 167.391 654.195 167.484 660.242V677H161.789V660.57C161.789 658.961 161.438 657.773 160.734 657.008C160.047 656.227 158.914 655.836 157.336 655.836C155.039 655.836 153.328 656.875 152.203 658.953V677H146.508V651.641H151.875ZM187.523 670.109C187.523 669.094 187.102 668.32 186.258 667.789C185.43 667.258 184.047 666.789 182.109 666.383C180.172 665.977 178.555 665.461 177.258 664.836C174.414 663.461 172.992 661.469 172.992 658.859C172.992 656.672 173.914 654.844 175.758 653.375C177.602 651.906 179.945 651.172 182.789 651.172C185.82 651.172 188.266 651.922 190.125 653.422C192 654.922 192.938 656.867 192.938 659.258H187.242C187.242 658.164 186.836 657.258 186.023 656.539C185.211 655.805 184.133 655.438 182.789 655.438C181.539 655.438 180.516 655.727 179.719 656.305C178.938 656.883 178.547 657.656 178.547 658.625C178.547 659.5 178.914 660.18 179.648 660.664C180.383 661.148 181.867 661.641 184.102 662.141C186.336 662.625 188.086 663.211 189.352 663.898C190.633 664.57 191.578 665.383 192.188 666.336C192.812 667.289 193.125 668.445 193.125 669.805C193.125 672.086 192.18 673.938 190.289 675.359C188.398 676.766 185.922 677.469 182.859 677.469C180.781 677.469 178.93 677.094 177.305 676.344C175.68 675.594 174.414 674.562 173.508 673.25C172.602 671.938 172.148 670.523 172.148 669.008H177.68C177.758 670.352 178.266 671.391 179.203 672.125C180.141 672.844 181.383 673.203 182.93 673.203C184.43 673.203 185.57 672.922 186.352 672.359C187.133 671.781 187.523 671.031 187.523 670.109ZM205.242 645.477V651.641H209.719V655.859H205.242V670.016C205.242 670.984 205.43 671.688 205.805 672.125C206.195 672.547 206.883 672.758 207.867 672.758C208.523 672.758 209.188 672.68 209.859 672.523V676.93C208.562 677.289 207.312 677.469 206.109 677.469C201.734 677.469 199.547 675.055 199.547 670.227V655.859H195.375V651.641H199.547V645.477H205.242ZM229.242 677C228.992 676.516 228.773 675.727 228.586 674.633C226.773 676.523 224.555 677.469 221.93 677.469C219.383 677.469 217.305 676.742 215.695 675.289C214.086 673.836 213.281 672.039 213.281 669.898C213.281 667.195 214.281 665.125 216.281 663.688C218.297 662.234 221.172 661.508 224.906 661.508H228.398V659.844C228.398 658.531 228.031 657.484 227.297 656.703C226.562 655.906 225.445 655.508 223.945 655.508C222.648 655.508 221.586 655.836 220.758 656.492C219.93 657.133 219.516 657.953 219.516 658.953H213.82C213.82 657.562 214.281 656.266 215.203 655.062C216.125 653.844 217.375 652.891 218.953 652.203C220.547 651.516 222.32 651.172 224.273 651.172C227.242 651.172 229.609 651.922 231.375 653.422C233.141 654.906 234.047 657 234.094 659.703V671.141C234.094 673.422 234.414 675.242 235.055 676.602V677H229.242ZM222.984 672.898C224.109 672.898 225.164 672.625 226.148 672.078C227.148 671.531 227.898 670.797 228.398 669.875V665.094H225.328C223.219 665.094 221.633 665.461 220.57 666.195C219.508 666.93 218.977 667.969 218.977 669.312C218.977 670.406 219.336 671.281 220.055 671.938C220.789 672.578 221.766 672.898 222.984 672.898ZM245.344 651.641L245.508 654.57C247.383 652.305 249.844 651.172 252.891 651.172C258.172 651.172 260.859 654.195 260.953 660.242V677H255.258V660.57C255.258 658.961 254.906 657.773 254.203 657.008C253.516 656.227 252.383 655.836 250.805 655.836C248.508 655.836 246.797 656.875 245.672 658.953V677H239.977V651.641H245.344ZM273.914 645.477V651.641H278.391V655.859H273.914V670.016C273.914 670.984 274.102 671.688 274.477 672.125C274.867 672.547 275.555 672.758 276.539 672.758C277.195 672.758 277.859 672.68 278.531 672.523V676.93C277.234 677.289 275.984 677.469 274.781 677.469C270.406 677.469 268.219 675.055 268.219 670.227V655.859H264.047V651.641H268.219V645.477H273.914ZM305.883 677.469C302.273 677.469 299.344 676.336 297.094 674.07C294.859 671.789 293.742 668.758 293.742 664.977V664.273C293.742 661.742 294.227 659.484 295.195 657.5C296.18 655.5 297.555 653.945 299.32 652.836C301.086 651.727 303.055 651.172 305.227 651.172C308.68 651.172 311.344 652.273 313.219 654.477C315.109 656.68 316.055 659.797 316.055 663.828V666.125H299.484C299.656 668.219 300.352 669.875 301.57 671.094C302.805 672.312 304.352 672.922 306.211 672.922C308.82 672.922 310.945 671.867 312.586 669.758L315.656 672.688C314.641 674.203 313.281 675.383 311.578 676.227C309.891 677.055 307.992 677.469 305.883 677.469ZM305.203 655.742C303.641 655.742 302.375 656.289 301.406 657.383C300.453 658.477 299.844 660 299.578 661.953H310.43V661.531C310.305 659.625 309.797 658.188 308.906 657.219C308.016 656.234 306.781 655.742 305.203 655.742ZM329.602 659.984L334.43 651.641H340.758L333 664.133L341.016 677H334.734L329.672 668.328L324.633 677H318.305L326.32 664.133L318.586 651.641H324.867L329.602 659.984ZM366.844 664.578C366.844 668.5 365.953 671.633 364.172 673.977C362.391 676.305 360 677.469 357 677.469C354.219 677.469 351.992 676.555 350.32 674.727V686.75H344.625V651.641H349.875L350.109 654.219C351.781 652.188 354.055 651.172 356.93 651.172C360.023 651.172 362.445 652.328 364.195 654.641C365.961 656.938 366.844 660.133 366.844 664.227V664.578ZM361.172 664.086C361.172 661.555 360.664 659.547 359.648 658.062C358.648 656.578 357.211 655.836 355.336 655.836C353.008 655.836 351.336 656.797 350.32 658.719V669.969C351.352 671.938 353.039 672.922 355.383 672.922C357.195 672.922 358.609 672.195 359.625 670.742C360.656 669.273 361.172 667.055 361.172 664.086ZM382.852 677.469C379.242 677.469 376.312 676.336 374.062 674.07C371.828 671.789 370.711 668.758 370.711 664.977V664.273C370.711 661.742 371.195 659.484 372.164 657.5C373.148 655.5 374.523 653.945 376.289 652.836C378.055 651.727 380.023 651.172 382.195 651.172C385.648 651.172 388.312 652.273 390.188 654.477C392.078 656.68 393.023 659.797 393.023 663.828V666.125H376.453C376.625 668.219 377.32 669.875 378.539 671.094C379.773 672.312 381.32 672.922 383.18 672.922C385.789 672.922 387.914 671.867 389.555 669.758L392.625 672.688C391.609 674.203 390.25 675.383 388.547 676.227C386.859 677.055 384.961 677.469 382.852 677.469ZM382.172 655.742C380.609 655.742 379.344 656.289 378.375 657.383C377.422 658.477 376.812 660 376.547 661.953H387.398V661.531C387.273 659.625 386.766 658.188 385.875 657.219C384.984 656.234 383.75 655.742 382.172 655.742ZM410.742 656.844C409.992 656.719 409.219 656.656 408.422 656.656C405.812 656.656 404.055 657.656 403.148 659.656V677H397.453V651.641H402.891L403.031 654.477C404.406 652.273 406.312 651.172 408.75 651.172C409.562 651.172 410.234 651.281 410.766 651.5L410.742 656.844ZM422.648 645.477V651.641H427.125V655.859H422.648V670.016C422.648 670.984 422.836 671.688 423.211 672.125C423.602 672.547 424.289 672.758 425.273 672.758C425.93 672.758 426.594 672.68 427.266 672.523V676.93C425.969 677.289 424.719 677.469 423.516 677.469C419.141 677.469 416.953 675.055 416.953 670.227V655.859H412.781V651.641H416.953V645.477H422.648ZM449.062 654.406C450.922 652.25 453.273 651.172 456.117 651.172C461.523 651.172 464.266 654.258 464.344 660.43V677H458.648V660.641C458.648 658.891 458.266 657.656 457.5 656.938C456.75 656.203 455.641 655.836 454.172 655.836C451.891 655.836 450.188 656.852 449.062 658.883V677H443.367V641H449.062V654.406ZM481.289 677.469C477.68 677.469 474.75 676.336 472.5 674.07C470.266 671.789 469.148 668.758 469.148 664.977V664.273C469.148 661.742 469.633 659.484 470.602 657.5C471.586 655.5 472.961 653.945 474.727 652.836C476.492 651.727 478.461 651.172 480.633 651.172C484.086 651.172 486.75 652.273 488.625 654.477C490.516 656.68 491.461 659.797 491.461 663.828V666.125H474.891C475.062 668.219 475.758 669.875 476.977 671.094C478.211 672.312 479.758 672.922 481.617 672.922C484.227 672.922 486.352 671.867 487.992 669.758L491.062 672.688C490.047 674.203 488.688 675.383 486.984 676.227C485.297 677.055 483.398 677.469 481.289 677.469ZM480.609 655.742C479.047 655.742 477.781 656.289 476.812 657.383C475.859 658.477 475.25 660 474.984 661.953H485.836V661.531C485.711 659.625 485.203 658.188 484.312 657.219C483.422 656.234 482.188 655.742 480.609 655.742ZM501.961 677H496.266V641H501.961V677ZM530.391 664.578C530.391 668.5 529.5 671.633 527.719 673.977C525.938 676.305 523.547 677.469 520.547 677.469C517.766 677.469 515.539 676.555 513.867 674.727V686.75H508.172V651.641H513.422L513.656 654.219C515.328 652.188 517.602 651.172 520.477 651.172C523.57 651.172 525.992 652.328 527.742 654.641C529.508 656.938 530.391 660.133 530.391 664.227V664.578ZM524.719 664.086C524.719 661.555 524.211 659.547 523.195 658.062C522.195 656.578 520.758 655.836 518.883 655.836C516.555 655.836 514.883 656.797 513.867 658.719V669.969C514.898 671.938 516.586 672.922 518.93 672.922C520.742 672.922 522.156 672.195 523.172 670.742C524.203 669.273 524.719 667.055 524.719 664.086ZM569.461 669.148L573.492 651.641H579.047L572.133 677H567.445L562.008 659.586L556.664 677H551.977L545.039 651.641H550.594L554.695 668.961L559.898 651.641H564.188L569.461 669.148ZM588.914 677H583.219V651.641H588.914V677ZM582.867 645.055C582.867 644.18 583.141 643.453 583.688 642.875C584.25 642.297 585.047 642.008 586.078 642.008C587.109 642.008 587.906 642.297 588.469 642.875C589.031 643.453 589.312 644.18 589.312 645.055C589.312 645.914 589.031 646.633 588.469 647.211C587.906 647.773 587.109 648.055 586.078 648.055C585.047 648.055 584.25 647.773 583.688 647.211C583.141 646.633 582.867 645.914 582.867 645.055ZM602.273 645.477V651.641H606.75V655.859H602.273V670.016C602.273 670.984 602.461 671.688 602.836 672.125C603.227 672.547 603.914 672.758 604.898 672.758C605.555 672.758 606.219 672.68 606.891 672.523V676.93C605.594 677.289 604.344 677.469 603.141 677.469C598.766 677.469 596.578 675.055 596.578 670.227V655.859H592.406V651.641H596.578V645.477H602.273ZM616.734 654.406C618.594 652.25 620.945 651.172 623.789 651.172C629.195 651.172 631.938 654.258 632.016 660.43V677H626.32V660.641C626.32 658.891 625.938 657.656 625.172 656.938C624.422 656.203 623.312 655.836 621.844 655.836C619.562 655.836 617.859 656.852 616.734 658.883V677H611.039V641H616.734V654.406ZM58.3359 728.922C59.7578 728.922 60.9375 728.508 61.875 727.68C62.8125 726.852 63.3125 725.828 63.375 724.609H68.7422C68.6797 726.188 68.1875 727.664 67.2656 729.039C66.3438 730.398 65.0938 731.477 63.5156 732.273C61.9375 733.07 60.2344 733.469 58.4062 733.469C54.8594 733.469 52.0469 732.32 49.9688 730.023C47.8906 727.727 46.8516 724.555 46.8516 720.508V719.922C46.8516 716.062 47.8828 712.977 49.9453 710.664C52.0078 708.336 54.8203 707.172 58.3828 707.172C61.3984 707.172 63.8516 708.055 65.7422 709.82C67.6484 711.57 68.6484 713.875 68.7422 716.734H63.375C63.3125 715.281 62.8125 714.086 61.875 713.148C60.9531 712.211 59.7734 711.742 58.3359 711.742C56.4922 711.742 55.0703 712.414 54.0703 713.758C53.0703 715.086 52.5625 717.109 52.5469 719.828V720.742C52.5469 723.492 53.0391 725.547 54.0234 726.906C55.0234 728.25 56.4609 728.922 58.3359 728.922ZM71.9766 720.086C71.9766 717.602 72.4688 715.367 73.4531 713.383C74.4375 711.383 75.8203 709.852 77.6016 708.789C79.3828 707.711 81.4297 707.172 83.7422 707.172C87.1641 707.172 89.9375 708.273 92.0625 710.477C94.2031 712.68 95.3594 715.602 95.5312 719.242L95.5547 720.578C95.5547 723.078 95.0703 725.312 94.1016 727.281C93.1484 729.25 91.7734 730.773 89.9766 731.852C88.1953 732.93 86.1328 733.469 83.7891 733.469C80.2109 733.469 77.3438 732.281 75.1875 729.906C73.0469 727.516 71.9766 724.336 71.9766 720.367V720.086ZM77.6719 720.578C77.6719 723.188 78.2109 725.234 79.2891 726.719C80.3672 728.188 81.8672 728.922 83.7891 728.922C85.7109 728.922 87.2031 728.172 88.2656 726.672C89.3438 725.172 89.8828 722.977 89.8828 720.086C89.8828 717.523 89.3281 715.492 88.2188 713.992C87.125 712.492 85.6328 711.742 83.7422 711.742C81.8828 711.742 80.4062 712.484 79.3125 713.969C78.2188 715.438 77.6719 717.641 77.6719 720.578ZM115.734 730.516C114.062 732.484 111.688 733.469 108.609 733.469C105.859 733.469 103.773 732.664 102.352 731.055C100.945 729.445 100.242 727.117 100.242 724.07V707.641H105.938V724C105.938 727.219 107.273 728.828 109.945 728.828C112.711 728.828 114.578 727.836 115.547 725.852V707.641H121.242V733H115.875L115.734 730.516ZM149.25 720.578C149.25 724.5 148.359 727.633 146.578 729.977C144.797 732.305 142.406 733.469 139.406 733.469C136.625 733.469 134.398 732.555 132.727 730.727V742.75H127.031V707.641H132.281L132.516 710.219C134.188 708.188 136.461 707.172 139.336 707.172C142.43 707.172 144.852 708.328 146.602 710.641C148.367 712.938 149.25 716.133 149.25 720.227V720.578ZM143.578 720.086C143.578 717.555 143.07 715.547 142.055 714.062C141.055 712.578 139.617 711.836 137.742 711.836C135.414 711.836 133.742 712.797 132.727 714.719V725.969C133.758 727.938 135.445 728.922 137.789 728.922C139.602 728.922 141.016 728.195 142.031 726.742C143.062 725.273 143.578 723.055 143.578 720.086ZM153.023 720.086C153.023 717.602 153.516 715.367 154.5 713.383C155.484 711.383 156.867 709.852 158.648 708.789C160.43 707.711 162.477 707.172 164.789 707.172C168.211 707.172 170.984 708.273 173.109 710.477C175.25 712.68 176.406 715.602 176.578 719.242L176.602 720.578C176.602 723.078 176.117 725.312 175.148 727.281C174.195 729.25 172.82 730.773 171.023 731.852C169.242 732.93 167.18 733.469 164.836 733.469C161.258 733.469 158.391 732.281 156.234 729.906C154.094 727.516 153.023 724.336 153.023 720.367V720.086ZM158.719 720.578C158.719 723.188 159.258 725.234 160.336 726.719C161.414 728.188 162.914 728.922 164.836 728.922C166.758 728.922 168.25 728.172 169.312 726.672C170.391 725.172 170.93 722.977 170.93 720.086C170.93 717.523 170.375 715.492 169.266 713.992C168.172 712.492 166.68 711.742 164.789 711.742C162.93 711.742 161.453 712.484 160.359 713.969C159.266 715.438 158.719 717.641 158.719 720.578ZM186.703 707.641L186.867 710.57C188.742 708.305 191.203 707.172 194.25 707.172C199.531 707.172 202.219 710.195 202.312 716.242V733H196.617V716.57C196.617 714.961 196.266 713.773 195.562 713.008C194.875 712.227 193.742 711.836 192.164 711.836C189.867 711.836 188.156 712.875 187.031 714.953V733H181.336V707.641H186.703ZM222.352 726.109C222.352 725.094 221.93 724.32 221.086 723.789C220.258 723.258 218.875 722.789 216.938 722.383C215 721.977 213.383 721.461 212.086 720.836C209.242 719.461 207.82 717.469 207.82 714.859C207.82 712.672 208.742 710.844 210.586 709.375C212.43 707.906 214.773 707.172 217.617 707.172C220.648 707.172 223.094 707.922 224.953 709.422C226.828 710.922 227.766 712.867 227.766 715.258H222.07C222.07 714.164 221.664 713.258 220.852 712.539C220.039 711.805 218.961 711.438 217.617 711.438C216.367 711.438 215.344 711.727 214.547 712.305C213.766 712.883 213.375 713.656 213.375 714.625C213.375 715.5 213.742 716.18 214.477 716.664C215.211 717.148 216.695 717.641 218.93 718.141C221.164 718.625 222.914 719.211 224.18 719.898C225.461 720.57 226.406 721.383 227.016 722.336C227.641 723.289 227.953 724.445 227.953 725.805C227.953 728.086 227.008 729.938 225.117 731.359C223.227 732.766 220.75 733.469 217.688 733.469C215.609 733.469 213.758 733.094 212.133 732.344C210.508 731.594 209.242 730.562 208.336 729.25C207.43 727.938 206.977 726.523 206.977 725.008H212.508C212.586 726.352 213.094 727.391 214.031 728.125C214.969 728.844 216.211 729.203 217.758 729.203C219.258 729.203 220.398 728.922 221.18 728.359C221.961 727.781 222.352 727.031 222.352 726.109ZM260.039 733C259.789 732.516 259.57 731.727 259.383 730.633C257.57 732.523 255.352 733.469 252.727 733.469C250.18 733.469 248.102 732.742 246.492 731.289C244.883 729.836 244.078 728.039 244.078 725.898C244.078 723.195 245.078 721.125 247.078 719.688C249.094 718.234 251.969 717.508 255.703 717.508H259.195V715.844C259.195 714.531 258.828 713.484 258.094 712.703C257.359 711.906 256.242 711.508 254.742 711.508C253.445 711.508 252.383 711.836 251.555 712.492C250.727 713.133 250.312 713.953 250.312 714.953H244.617C244.617 713.562 245.078 712.266 246 711.062C246.922 709.844 248.172 708.891 249.75 708.203C251.344 707.516 253.117 707.172 255.07 707.172C258.039 707.172 260.406 707.922 262.172 709.422C263.938 710.906 264.844 713 264.891 715.703V727.141C264.891 729.422 265.211 731.242 265.852 732.602V733H260.039ZM253.781 728.898C254.906 728.898 255.961 728.625 256.945 728.078C257.945 727.531 258.695 726.797 259.195 725.875V721.094H256.125C254.016 721.094 252.43 721.461 251.367 722.195C250.305 722.93 249.773 723.969 249.773 725.312C249.773 726.406 250.133 727.281 250.852 727.938C251.586 728.578 252.562 728.898 253.781 728.898ZM276.141 707.641L276.305 710.57C278.18 708.305 280.641 707.172 283.688 707.172C288.969 707.172 291.656 710.195 291.75 716.242V733H286.055V716.57C286.055 714.961 285.703 713.773 285 713.008C284.312 712.227 283.18 711.836 281.602 711.836C279.305 711.836 277.594 712.875 276.469 714.953V733H270.773V707.641H276.141ZM296.508 720.133C296.508 716.227 297.414 713.094 299.227 710.734C301.039 708.359 303.469 707.172 306.516 707.172C309.203 707.172 311.375 708.109 313.031 709.984V697H318.727V733H313.57L313.289 730.375C311.586 732.438 309.312 733.469 306.469 733.469C303.5 733.469 301.094 732.273 299.25 729.883C297.422 727.492 296.508 724.242 296.508 720.133ZM302.203 720.625C302.203 723.203 302.695 725.219 303.68 726.672C304.68 728.109 306.094 728.828 307.922 728.828C310.25 728.828 311.953 727.789 313.031 725.711V714.883C311.984 712.852 310.297 711.836 307.969 711.836C306.125 711.836 304.703 712.57 303.703 714.039C302.703 715.492 302.203 717.688 302.203 720.625ZM350.836 726.109C350.836 725.094 350.414 724.32 349.57 723.789C348.742 723.258 347.359 722.789 345.422 722.383C343.484 721.977 341.867 721.461 340.57 720.836C337.727 719.461 336.305 717.469 336.305 714.859C336.305 712.672 337.227 710.844 339.07 709.375C340.914 707.906 343.258 707.172 346.102 707.172C349.133 707.172 351.578 707.922 353.438 709.422C355.312 710.922 356.25 712.867 356.25 715.258H350.555C350.555 714.164 350.148 713.258 349.336 712.539C348.523 711.805 347.445 711.438 346.102 711.438C344.852 711.438 343.828 711.727 343.031 712.305C342.25 712.883 341.859 713.656 341.859 714.625C341.859 715.5 342.227 716.18 342.961 716.664C343.695 717.148 345.18 717.641 347.414 718.141C349.648 718.625 351.398 719.211 352.664 719.898C353.945 720.57 354.891 721.383 355.5 722.336C356.125 723.289 356.438 724.445 356.438 725.805C356.438 728.086 355.492 729.938 353.602 731.359C351.711 732.766 349.234 733.469 346.172 733.469C344.094 733.469 342.242 733.094 340.617 732.344C338.992 731.594 337.727 730.562 336.82 729.25C335.914 727.938 335.461 726.523 335.461 725.008H340.992C341.07 726.352 341.578 727.391 342.516 728.125C343.453 728.844 344.695 729.203 346.242 729.203C347.742 729.203 348.883 728.922 349.664 728.359C350.445 727.781 350.836 727.031 350.836 726.109ZM376.57 733C376.32 732.516 376.102 731.727 375.914 730.633C374.102 732.523 371.883 733.469 369.258 733.469C366.711 733.469 364.633 732.742 363.023 731.289C361.414 729.836 360.609 728.039 360.609 725.898C360.609 723.195 361.609 721.125 363.609 719.688C365.625 718.234 368.5 717.508 372.234 717.508H375.727V715.844C375.727 714.531 375.359 713.484 374.625 712.703C373.891 711.906 372.773 711.508 371.273 711.508C369.977 711.508 368.914 711.836 368.086 712.492C367.258 713.133 366.844 713.953 366.844 714.953H361.148C361.148 713.562 361.609 712.266 362.531 711.062C363.453 709.844 364.703 708.891 366.281 708.203C367.875 707.516 369.648 707.172 371.602 707.172C374.57 707.172 376.938 707.922 378.703 709.422C380.469 710.906 381.375 713 381.422 715.703V727.141C381.422 729.422 381.742 731.242 382.383 732.602V733H376.57ZM370.312 728.898C371.438 728.898 372.492 728.625 373.477 728.078C374.477 727.531 375.227 726.797 375.727 725.875V721.094H372.656C370.547 721.094 368.961 721.461 367.898 722.195C366.836 722.93 366.305 723.969 366.305 725.312C366.305 726.406 366.664 727.281 367.383 727.938C368.117 728.578 369.094 728.898 370.312 728.898ZM395.953 725.781L401.32 707.641H407.203L398.414 733H393.469L384.609 707.641H390.516L395.953 725.781ZM421.617 733.469C418.008 733.469 415.078 732.336 412.828 730.07C410.594 727.789 409.477 724.758 409.477 720.977V720.273C409.477 717.742 409.961 715.484 410.93 713.5C411.914 711.5 413.289 709.945 415.055 708.836C416.82 707.727 418.789 707.172 420.961 707.172C424.414 707.172 427.078 708.273 428.953 710.477C430.844 712.68 431.789 715.797 431.789 719.828V722.125H415.219C415.391 724.219 416.086 725.875 417.305 727.094C418.539 728.312 420.086 728.922 421.945 728.922C424.555 728.922 426.68 727.867 428.32 725.758L431.391 728.688C430.375 730.203 429.016 731.383 427.312 732.227C425.625 733.055 423.727 733.469 421.617 733.469ZM420.938 711.742C419.375 711.742 418.109 712.289 417.141 713.383C416.188 714.477 415.578 716 415.312 717.953H426.164V717.531C426.039 715.625 425.531 714.188 424.641 713.219C423.75 712.234 422.516 711.742 420.938 711.742ZM453.539 707.641L453.703 710.289C455.484 708.211 457.922 707.172 461.016 707.172C464.406 707.172 466.727 708.469 467.977 711.062C469.82 708.469 472.414 707.172 475.758 707.172C478.555 707.172 480.633 707.945 481.992 709.492C483.367 711.039 484.07 713.32 484.102 716.336V733H478.406V716.5C478.406 714.891 478.055 713.711 477.352 712.961C476.648 712.211 475.484 711.836 473.859 711.836C472.562 711.836 471.5 712.188 470.672 712.891C469.859 713.578 469.289 714.484 468.961 715.609L468.984 733H463.289V716.312C463.211 713.328 461.688 711.836 458.719 711.836C456.438 711.836 454.82 712.766 453.867 714.625V733H448.172V707.641H453.539ZM488.883 720.086C488.883 717.602 489.375 715.367 490.359 713.383C491.344 711.383 492.727 709.852 494.508 708.789C496.289 707.711 498.336 707.172 500.648 707.172C504.07 707.172 506.844 708.273 508.969 710.477C511.109 712.68 512.266 715.602 512.438 719.242L512.461 720.578C512.461 723.078 511.977 725.312 511.008 727.281C510.055 729.25 508.68 730.773 506.883 731.852C505.102 732.93 503.039 733.469 500.695 733.469C497.117 733.469 494.25 732.281 492.094 729.906C489.953 727.516 488.883 724.336 488.883 720.367V720.086ZM494.578 720.578C494.578 723.188 495.117 725.234 496.195 726.719C497.273 728.188 498.773 728.922 500.695 728.922C502.617 728.922 504.109 728.172 505.172 726.672C506.25 725.172 506.789 722.977 506.789 720.086C506.789 717.523 506.234 715.492 505.125 713.992C504.031 712.492 502.539 711.742 500.648 711.742C498.789 711.742 497.312 712.484 496.219 713.969C495.125 715.438 494.578 717.641 494.578 720.578ZM522.562 707.641L522.727 710.57C524.602 708.305 527.062 707.172 530.109 707.172C535.391 707.172 538.078 710.195 538.172 716.242V733H532.477V716.57C532.477 714.961 532.125 713.773 531.422 713.008C530.734 712.227 529.602 711.836 528.023 711.836C525.727 711.836 524.016 712.875 522.891 714.953V733H517.195V707.641H522.562ZM555.164 733.469C551.555 733.469 548.625 732.336 546.375 730.07C544.141 727.789 543.023 724.758 543.023 720.977V720.273C543.023 717.742 543.508 715.484 544.477 713.5C545.461 711.5 546.836 709.945 548.602 708.836C550.367 707.727 552.336 707.172 554.508 707.172C557.961 707.172 560.625 708.273 562.5 710.477C564.391 712.68 565.336 715.797 565.336 719.828V722.125H548.766C548.938 724.219 549.633 725.875 550.852 727.094C552.086 728.312 553.633 728.922 555.492 728.922C558.102 728.922 560.227 727.867 561.867 725.758L564.938 728.688C563.922 730.203 562.562 731.383 560.859 732.227C559.172 733.055 557.273 733.469 555.164 733.469ZM554.484 711.742C552.922 711.742 551.656 712.289 550.688 713.383C549.734 714.477 549.125 716 548.859 717.953H559.711V717.531C559.586 715.625 559.078 714.188 558.188 713.219C557.297 712.234 556.062 711.742 554.484 711.742ZM578.32 724.844L583.477 707.641H589.547L579.469 736.844C577.922 741.109 575.297 743.242 571.594 743.242C570.766 743.242 569.852 743.102 568.852 742.82V738.414L569.93 738.484C571.367 738.484 572.445 738.219 573.164 737.688C573.898 737.172 574.477 736.297 574.898 735.062L575.719 732.883L566.812 707.641H572.953L578.32 724.844ZM592.453 727C593.516 727 594.336 727.305 594.914 727.914C595.492 728.508 595.781 729.258 595.781 730.164C595.781 731.055 595.492 731.797 594.914 732.391C594.336 732.969 593.516 733.258 592.453 733.258C591.438 733.258 590.633 732.969 590.039 732.391C589.445 731.812 589.148 731.07 589.148 730.164C589.148 729.258 589.438 728.508 590.016 727.914C590.594 727.305 591.406 727 592.453 727Z" fill="black"/>
<line x1="318.842" y1="235.753" x2="320.156" y2="332.165" stroke="#FF0000" stroke-width="6" stroke-dasharray="12 12"/>
<line x1="320" y1="482" x2="320" y2="578.421" stroke="#FF0000" stroke-width="6" stroke-dasharray="12 12"/>
</svg>
